ply
format ascii 1.0
comment Created by Blender 2.70 (sub 0) - www.blender.org, source file: ''
element vertex 135
property float x
property float y
property float z
element face 270
property list uchar uint vertex_indices
end_header
-0.399584 -0.833321 1.265293
-0.481518 -0.336895 0.903403
-0.543211 -1.076603 1.084303
-0.435566 -0.502358 0.785737
-0.468745 -1.219620 0.892721
-0.150229 -0.588574 1.235506
-0.351951 -0.301836 1.088100
-0.146696 0.070169 0.787233
-0.363080 0.023871 0.696621
-0.281942 -0.721624 0.786720
-0.296121 -0.195905 0.419477
-0.062197 -0.302264 0.496837
-0.152684 0.327620 0.120115
0.034137 -0.145224 0.141157
-0.218351 0.189177 -0.058231
0.145569 -0.017394 0.263454
0.353016 0.058996 -0.474503
0.118604 0.166789 0.411361
0.237652 0.206753 -0.599905
0.008449 0.337425 0.203092
0.059829 0.274650 -0.478357
0.281224 -0.174199 -0.396517
-0.057923 -0.006297 -0.698213
-0.134393 -0.014245 -0.309668
-0.062742 -0.138420 -0.065196
0.033838 -0.253342 -0.429466
0.014630 -0.560975 -0.923138
0.125978 -0.551252 -0.735366
0.347421 -0.265761 -1.061972
0.377554 -0.491930 -0.721357
0.506113 -0.581420 -1.056318
0.110187 -0.238277 -1.037996
0.092351 -1.137169 -1.235581
0.296189 -0.838602 -1.299342
0.156700 -1.000212 -0.853281
0.417649 -0.986443 -0.863976
0.451771 -1.585284 -0.809258
0.432192 -1.774577 -0.950321
0.500978 -1.000226 -1.188687
0.382349 -1.492271 -1.208535
0.137135 -2.074378 -0.843659
0.221482 -1.277910 -1.297646
-0.019761 -1.931854 -0.791767
0.043731 -1.375159 -0.969949
-0.061696 -1.846555 -0.469479
0.125644 -1.399947 -0.761273
0.197581 -1.651924 -0.578797
0.261169 -1.890281 -0.292117
0.323811 -2.135667 -0.344169
0.232523 -2.205984 -0.583525
0.080896 -2.352295 -0.079631
-0.093481 -1.875726 0.093120
-0.157874 -2.287401 -0.041816
-0.365246 -2.055890 0.470375
-0.304040 -1.898745 0.383509
0.124880 -1.902475 0.282598
0.130307 -2.242435 0.292473
-0.033923 -2.283572 0.430042
-0.285740 -2.075872 0.778272
-0.019074 -1.759684 0.966773
-0.011460 -1.590022 0.867850
-0.107316 -1.594002 0.632814
-0.145477 -1.885918 1.004347
-0.270041 -1.542357 1.218892
-0.488584 -1.438135 1.132783
-0.285394 -1.261822 0.787058
-0.093453 -1.000392 1.219119
-0.098470 -1.117691 0.951766
1.244805 0.554193 0.127153
1.108306 0.509562 0.238898
1.170674 -0.251971 0.262708
0.981507 0.336497 0.213798
0.812868 0.359400 0.070642
0.849846 -0.108713 0.066242
0.942056 -0.019808 -0.186202
0.889203 0.549475 -0.216540
1.082038 0.589468 -0.227903
1.244422 -0.255748 -0.176679
1.341492 0.222624 -0.056972
1.071567 0.873212 -0.061421
0.812070 1.015943 0.206634
0.680909 1.234697 0.066564
0.019942 1.255894 0.236755
0.468939 0.868041 0.189373
0.141258 1.138922 -0.225214
0.445218 1.261683 -0.152561
0.072359 1.394054 0.072322
-0.030711 0.927386 0.066647
0.354003 0.851479 -0.068740
-0.194155 1.043476 0.228431
-0.155741 1.313142 -0.168238
-0.637221 0.709379 0.170039
-0.241355 0.961553 -0.187157
-0.691058 0.881403 -0.228834
-0.847283 1.012596 0.181757
-1.002981 0.532416 0.241823
-0.687962 0.599443 -0.065764
-0.774744 1.161050 -0.055969
-1.232275 0.565361 0.062401
-1.056775 0.807261 -0.171151
-1.200390 -0.179277 -0.243355
-0.827394 0.299323 0.069677
-1.010247 0.052616 -0.220690
-0.869210 0.045789 -0.066256
-1.306593 -0.097768 -0.177859
-1.343642 -0.037887 0.061766
-1.207267 0.147696 0.234767
-0.877587 -0.289818 0.196857
-1.170243 -0.615894 0.003644
-0.962384 -0.797870 0.164026
-0.725949 -0.424665 -0.069896
-0.509543 -0.915776 0.232230
-0.686507 -0.624731 -0.227417
-0.590102 -1.085455 0.172530
-0.589153 -1.112856 -0.179707
-0.718286 -1.106888 -0.072313
-0.396147 -0.709999 -0.068171
-0.143089 -1.039353 -0.228136
-0.003853 -1.288997 0.065782
0.146070 -0.888488 0.180116
-0.599990 -0.631163 0.124441
0.028516 -0.823402 -0.064617
0.014711 -1.149852 0.223776
0.232142 -1.214226 -0.156671
0.614838 -1.152667 -0.035171
0.778893 -0.961653 0.161369
0.604156 -0.577716 0.069902
0.618621 -0.668901 -0.168609
0.882596 -0.762932 -0.215513
0.862025 -0.439257 0.237894
1.192087 -0.604734 -0.057028
1.288735 -0.302951 0.129025
-0.010250 -0.465021 0.782571
0.681781 0.585274 -0.065895
-0.456051 1.308020 0.066805
3 0 1 2
3 2 3 4
3 5 6 0
3 6 7 8
3 6 8 1
3 9 10 11
3 1 10 3
3 7 12 8
3 10 13 11
3 12 14 8
3 15 16 17
3 17 18 19
3 19 18 20
3 15 21 16
3 14 22 23
3 24 25 21
3 23 26 27
3 25 27 21
3 16 28 18
3 27 29 21
3 16 30 28
3 31 32 22
3 28 33 31
3 33 32 31
3 34 35 29
3 29 35 30
3 26 34 27
3 36 37 38
3 39 40 41
3 41 40 32
3 32 42 43
3 43 44 45
3 46 47 36
3 42 44 43
3 48 49 37
3 37 49 40
3 49 50 40
3 46 51 47
3 48 50 49
3 52 53 42
3 53 54 44
3 47 55 48
3 51 55 47
3 56 57 50
3 57 58 52
3 52 58 53
3 55 59 48
3 55 60 59
3 51 54 61
3 55 61 60
3 56 59 62
3 63 64 58
3 64 2 53
3 53 2 4
3 4 65 54
3 54 65 61
3 60 66 59
3 59 63 62
3 63 0 64
3 4 9 65
3 60 67 66
3 66 5 63
3 63 5 0
3 68 69 70
3 71 72 73
3 74 75 76
3 77 76 78
3 78 79 68
3 68 80 69
3 68 81 80
3 80 82 69
3 69 82 83
3 76 84 85
3 86 82 80
3 83 87 88
3 89 87 83
3 85 90 86
3 89 91 87
3 92 93 84
3 94 95 82
3 96 93 92
3 97 98 94
3 99 98 97
3 93 100 99
3 95 101 91
3 96 102 93
3 101 103 96
3 96 103 102
3 104 105 98
3 98 105 106
3 95 107 101
3 106 107 95
3 105 108 109
3 107 110 103
3 109 111 106
3 102 112 100
3 100 108 104
3 109 113 111
3 114 115 108
3 110 116 112
3 100 117 114
3 115 113 109
3 116 117 112
3 115 118 113
3 111 119 120
3 116 121 117
3 114 118 115
3 113 118 122
3 117 123 114
3 123 124 118
3 124 125 118
3 126 127 121
3 123 128 124
3 70 129 119
3 128 130 124
3 130 131 125
3 126 74 127
3 128 77 130
3 127 74 128
3 129 73 126
3 130 78 131
3 70 71 129
3 129 71 73
3 77 78 130
3 74 76 128
3 128 76 77
3 64 0 2
3 4 3 9
3 2 1 3
3 67 9 132
3 67 132 66
3 0 6 1
3 66 132 17
3 66 17 5
3 5 7 6
3 9 3 10
3 9 11 132
3 5 17 7
3 132 11 15
3 132 15 17
3 7 19 12
3 1 8 14
3 1 14 10
3 10 24 13
3 11 13 15
3 7 17 19
3 10 14 23
3 10 23 24
3 19 20 12
3 12 20 14
3 13 24 21
3 15 13 21
3 17 16 18
3 14 20 22
3 24 23 25
3 20 18 31
3 20 31 22
3 23 22 26
3 25 23 27
3 21 29 16
3 18 28 31
3 16 29 30
3 22 32 26
3 27 34 29
3 28 30 33
3 30 38 33
3 33 41 32
3 26 32 43
3 26 43 34
3 33 39 41
3 34 45 35
3 30 35 36
3 30 36 38
3 33 38 39
3 34 43 45
3 35 45 46
3 35 46 36
3 38 37 39
3 32 40 42
3 39 37 40
3 45 44 46
3 37 36 48
3 36 47 48
3 42 40 52
3 44 51 46
3 40 50 52
3 48 56 50
3 42 53 44
3 44 54 51
3 50 57 52
3 48 59 56
3 51 61 55
3 57 56 62
3 57 62 58
3 53 58 64
3 58 62 63
3 54 53 4
3 61 67 60
3 61 65 67
3 59 66 63
3 65 9 67
3 131 78 68
3 131 68 70
3 73 72 74
3 70 69 71
3 74 72 133
3 74 133 75
3 78 76 79
3 68 79 81
3 71 69 83
3 72 71 83
3 72 83 133
3 133 83 88
3 133 88 75
3 76 85 79
3 75 88 84
3 75 84 76
3 79 85 81
3 81 86 80
3 83 82 89
3 85 84 90
3 81 85 86
3 88 87 92
3 84 88 92
3 86 134 82
3 86 90 134
3 82 134 94
3 87 91 92
3 84 93 90
3 90 97 134
3 82 95 89
3 90 93 99
3 90 99 97
3 134 97 94
3 89 95 91
3 91 96 92
3 94 98 106
3 95 94 106
3 96 91 101
3 93 102 100
3 99 100 104
3 99 104 98
3 101 107 103
3 103 110 102
3 105 104 108
3 106 105 109
3 106 111 107
3 107 120 110
3 102 110 112
3 100 114 108
3 108 115 109
3 107 111 120
3 100 112 117
3 110 120 116
3 113 122 111
3 120 119 116
3 116 119 121
3 114 123 118
3 111 122 119
3 122 118 125
3 117 128 123
3 121 119 126
3 121 127 117
3 117 127 128
3 122 125 70
3 122 70 119
3 119 129 126
3 124 130 125
3 125 131 70
3 126 73 74
