ply
format ascii 1.0
comment Created by Blender 2.70 (sub 0) - www.blender.org, source file: ''
element vertex 507
property float x
property float y
property float z
element face 968
property list uchar uint vertex_indices
end_header
0.873643 -1.918024 0.220776
0.983268 -1.780992 0.097447
1.092894 -1.753585 0.357808
-0.661118 -1.918024 0.220776
-0.715931 -1.904321 0.357808
-0.880369 -1.753585 0.357808
1.065488 -1.589147 0.028931
1.202520 -1.561740 0.357808
-0.770744 -1.780992 0.097447
-0.989995 -1.561740 0.357808
0.722907 -1.835805 -0.012179
0.722907 -1.657663 -0.108101
-0.510383 -1.835805 -0.012179
-0.852963 -1.589147 0.028931
0.722907 -1.945431 0.165963
-0.510383 -1.945431 0.165963
0.585875 -1.972837 0.220776
0.462546 -1.876914 0.097447
-0.373350 -1.972837 0.220776
0.380327 -1.712476 0.028931
-0.250021 -1.876914 0.097447
-0.510383 -1.657663 -0.108101
0.352920 -1.876914 0.357808
0.243294 -1.726179 0.357808
-0.030770 -1.726179 0.357808
-0.140396 -1.876914 0.357808
0.531062 -1.972837 0.357808
-0.318537 -1.972837 0.357808
0.585875 -1.972837 0.508544
0.462546 -1.876914 0.618169
-0.373350 -1.972837 0.508544
0.380327 -1.712476 0.700389
-0.167802 -1.712476 0.700389
-0.250021 -1.876914 0.618169
0.722907 -1.835805 0.727795
0.722907 -1.657663 0.837421
-0.510383 -1.657663 0.837421
-0.510383 -1.835805 0.727795
0.722907 -1.945431 0.563357
-0.510383 -1.945431 0.563357
0.873643 -1.918024 0.508544
0.983268 -1.780992 0.618169
-0.770744 -1.780992 0.618169
-0.661118 -1.918024 0.508544
1.065488 -1.589147 0.700389
-0.852963 -1.589147 0.700389
0.928455 -1.904321 0.357808
0.887346 -1.945431 0.522247
-0.674821 -1.945431 0.522247
0.722907 -1.986540 0.590763
-0.510383 -1.986540 0.590763
0.572172 -2.013947 0.522247
-0.359647 -2.013947 0.522247
0.503656 -2.013947 0.357808
-0.291131 -2.013947 0.357808
0.572172 -2.013947 0.207073
0.722907 -1.986540 0.138557
-0.359647 -2.013947 0.207073
0.887346 -1.945431 0.207073
-0.510383 -1.986540 0.138557
0.942159 -1.931727 0.357808
-0.674821 -1.945431 0.207073
0.722907 -2.027650 0.357808
-0.729634 -1.931727 0.357808
-0.510383 -2.027650 0.357808
0.421436 -1.548037 -1.766191
0.394030 -1.685069 -1.697675
0.106262 -1.698773 -1.725081
-0.181505 -1.685069 -1.697675
-0.208912 -1.548037 -1.766191
0.681798 -1.493224 -1.725081
0.517359 -1.685069 -1.670268
-0.304834 -1.685069 -1.670268
-0.469273 -1.493224 -1.725081
0.572172 -1.739882 -1.505829
-0.359647 -1.739882 -1.505829
-0.537789 -1.506927 -1.629158
0.544765 -1.780992 -1.300281
0.750314 -1.506927 -1.629158
-0.332241 -1.780992 -1.300281
-0.510383 -1.575444 -1.286578
0.476249 -1.822102 -0.848075
0.722907 -1.575444 -1.286578
-0.263725 -1.822102 -0.848075
-0.441866 -1.575444 -0.834372
0.873643 -1.506927 -0.313649
0.805126 -1.753585 -0.149211
0.325514 -2.000243 -0.245133
-0.661118 -1.506927 -0.313649
-0.250021 -1.561740 -0.395869
-0.112989 -2.000243 -0.245133
1.216223 -1.520631 -0.135508
1.188817 -1.671366 0.028931
-0.976292 -1.671366 0.028931
-1.003698 -1.520631 -0.135508
1.558804 -1.356192 0.193370
1.380662 -1.630257 0.289292
-1.346279 -1.356192 0.193370
1.613616 -1.616553 0.686686
1.408068 -1.726179 0.590763
-1.195543 -1.726179 0.590763
-1.401092 -1.616553 0.686686
1.353255 -1.671366 0.782608
1.312146 -1.849508 0.659279
-1.099621 -1.849508 0.659279
-1.140731 -1.671366 0.782608
0.969565 -1.780992 0.988156
0.873643 -1.972837 0.892234
-0.661118 -1.972837 0.892234
-0.757040 -1.780992 0.988156
0.668094 -1.863211 1.262221
0.654391 -2.041353 1.056672
-0.455570 -1.863211 1.262221
0.380327 -1.904321 1.193705
0.462546 -2.068759 1.015563
-0.250021 -2.068759 1.015563
-0.167802 -1.904321 1.193705
0.215888 -1.890618 0.796311
0.284404 -2.055056 0.686686
-0.071880 -2.055056 0.686686
-0.003363 -1.890618 0.796311
0.106262 -1.876914 0.686686
0.106262 -2.013947 0.549653
0.394030 -1.931727 0.659279
0.544765 -1.904321 0.755202
-0.332241 -1.904321 0.755202
-0.181505 -1.931727 0.659279
0.681798 -1.876914 0.768905
-0.469273 -1.876914 0.768905
0.859939 -1.835805 0.700389
-0.441866 -2.041353 1.056672
-0.647415 -1.835805 0.700389
1.161410 -1.739882 0.590763
-0.948886 -1.739882 0.590763
1.229926 -1.712476 0.453731
-1.017402 -1.712476 0.453731
1.202520 -1.712476 0.261886
-1.168137 -1.630257 0.289292
-0.989995 -1.712476 0.261886
0.969565 -1.753585 0.042634
-0.757040 -1.753585 0.042634
0.764017 -1.808398 -0.039585
-0.592602 -1.753585 -0.149211
-0.551492 -1.808398 -0.039585
0.462546 -1.876914 0.097447
-0.250021 -1.876914 0.097447
0.394030 -1.890618 0.179666
0.106262 -1.849508 0.015228
-0.181505 -1.890618 0.179666
0.106262 -1.918024 0.302995
0.339217 -1.904321 0.302995
-0.112989 -1.918024 0.467434
-0.126692 -1.904321 0.302995
0.106262 -1.780992 -1.629158
-0.003363 -1.794695 -1.615455
0.215888 -1.794695 -1.615455
-0.099286 -1.822102 -1.533236
0.298107 -1.863211 -1.327688
0.311811 -1.822102 -1.533236
-0.085583 -1.863211 -1.327688
0.243294 -1.890618 -0.848075
0.311811 -1.863211 -1.272875
-0.030770 -1.890618 -0.848075
-0.099286 -1.863211 -1.272875
0.256998 -1.876914 -0.574011
0.106262 -1.876914 -0.642527
0.106262 -1.890618 -0.848075
-0.044473 -1.876914 -0.574011
0.106262 -1.863211 -1.409907
0.339217 -1.972837 -0.464385
0.270701 -1.945431 -0.546604
-0.126692 -1.972837 -0.464385
-0.112989 -1.890618 -0.464385
0.298107 -1.945431 -0.299946
0.325514 -1.890618 -0.464385
-0.085583 -1.945431 -0.299946
-0.071880 -1.876914 -0.327353
0.106262 -1.876914 -0.313649
0.174778 -1.945431 -0.286243
0.037746 -1.945431 -0.286243
0.106262 -1.890618 -0.409572
0.106262 -1.972837 -0.395869
-0.058176 -1.945431 -0.546604
0.106262 -1.945431 -0.628823
0.243294 -1.986540 -0.505494
-0.030770 -1.986540 -0.505494
0.106262 -2.027650 -0.423275
0.188482 -2.000243 -0.327353
0.270701 -2.000243 -0.341056
0.024043 -2.000243 -0.327353
0.298107 -2.027650 -0.464385
-0.085583 -2.027650 -0.464385
-0.058176 -2.000243 -0.341056
0.106262 -1.986540 -0.574011
0.284404 -1.876914 -0.327353
0.394030 -1.822102 -0.491791
0.421436 -1.822102 -0.615120
-0.208912 -1.822102 -0.615120
0.654391 -1.575444 -0.834372
0.558469 -1.548037 -0.615120
-0.345944 -1.548037 -0.615120
0.517359 -1.548037 -0.505494
-0.181505 -1.822102 -0.491791
-0.304834 -1.548037 -0.505494
0.106262 -1.835805 -1.423610
0.270701 -1.849508 -1.368797
0.270701 -1.822102 -1.505829
-0.058176 -1.822102 -1.505829
0.188482 -1.780992 -1.588049
0.024043 -1.780992 -1.588049
0.106262 -1.780992 -1.601752
0.188482 -1.685069 -1.560642
0.024043 -1.685069 -1.560642
0.270701 -1.698773 -1.492126
0.270701 -1.739882 -1.382500
-0.058176 -1.849508 -1.368797
-0.058176 -1.698773 -1.492126
0.106262 -1.726179 -1.437313
0.106262 -1.685069 -1.574345
-0.058176 -1.739882 -1.382500
0.435140 -1.931727 0.207073
0.407733 -1.945431 0.316699
-0.195209 -1.945431 0.316699
0.421436 -1.945431 0.453731
-0.208912 -1.945431 0.453731
0.325514 -1.918024 0.467434
0.503656 -1.945431 0.124854
-0.291131 -1.945431 0.124854
0.764017 -1.876914 0.042634
0.942159 -1.835805 0.111150
-0.551492 -1.876914 0.042634
1.120301 -1.767289 0.275589
-0.729634 -1.835805 0.111150
1.134004 -1.780992 0.440028
-0.907776 -1.767289 0.275589
1.092894 -1.794695 0.549653
-0.880369 -1.794695 0.549653
0.846236 -1.931727 0.631873
-0.633711 -1.931727 0.631873
0.695501 -1.904321 0.686686
0.585875 -1.931727 0.672982
-0.482976 -1.904321 0.686686
0.476249 -1.945431 0.590763
-0.373350 -1.931727 0.672982
0.517359 -1.904321 0.563357
-0.304834 -1.904321 0.563357
-0.263725 -1.945431 0.590763
0.599578 -1.918024 0.631873
0.695501 -1.890618 0.645576
-0.482976 -1.890618 0.645576
0.832533 -1.890618 0.618169
-0.620008 -1.890618 0.618169
1.038081 -1.767289 0.522247
1.079191 -1.753585 0.426324
-0.921479 -1.780992 0.440028
-0.866666 -1.753585 0.426324
1.065488 -1.753585 0.302995
0.914752 -1.808398 0.138557
-0.702228 -1.808398 0.138557
0.764017 -1.849508 0.083744
-0.551492 -1.849508 0.083744
0.531062 -1.904321 0.152260
0.462546 -1.890618 0.234479
-0.222615 -1.931727 0.207073
-0.250021 -1.890618 0.234479
0.448843 -1.904321 0.453731
0.448843 -1.890618 0.330402
-0.236318 -1.904321 0.453731
-0.236318 -1.890618 0.330402
0.298107 -1.643960 0.741498
0.106262 -1.630257 0.645576
0.448843 -1.657663 1.097782
-0.085583 -1.643960 0.741498
0.695501 -1.616553 1.138892
-0.482976 -1.616553 1.138892
0.955862 -1.548037 0.905937
-0.743337 -1.548037 0.905937
1.298442 -1.438411 0.727795
-1.085918 -1.438411 0.727795
1.503991 -1.383599 0.645576
1.462881 -1.232863 0.220776
-1.250356 -1.232863 0.220776
1.161410 -1.301379 -0.066991
0.873643 -1.397302 -0.231430
-0.948886 -1.301379 -0.066991
0.106262 -1.136941 -1.067326
0.106262 -1.068424 -0.916591
0.421436 -1.027315 -0.793262
-0.208912 -1.027315 -0.793262
0.106262 -1.178050 -1.478423
0.325514 -1.205457 -1.012514
-0.112989 -1.205457 -1.012514
0.106262 -1.383599 -1.779894
0.352920 -1.219160 -1.396204
-0.140396 -1.219160 -1.396204
0.106262 -1.589147 -1.793597
0.394030 -1.342489 -1.725081
-0.181505 -1.342489 -1.725081
0.681798 -1.273973 -1.670268
-0.469273 -1.273973 -1.670268
0.613281 -1.246566 -1.313984
-0.400757 -1.246566 -1.313984
0.544765 -1.260270 -0.943998
-0.332241 -1.260270 -0.943998
0.517359 -1.287676 -0.683636
-0.304834 -1.287676 -0.683636
0.489952 -1.328786 -0.560307
0.476249 -1.397302 -0.464385
-0.263725 -1.397302 -0.464385
-0.277428 -1.328786 -0.560307
0.462546 -1.561740 -0.395869
0.462546 -1.452115 -0.368462
-0.661118 -1.397302 -0.231430
-0.250021 -1.452115 -0.368462
0.106262 0.877433 0.056337
0.695501 0.589665 0.028931
0.709204 0.370413 -0.327353
-0.496679 0.370413 -0.327353
-0.482976 0.589665 0.028931
0.106262 0.603368 -0.409572
0.626985 -0.109199 -0.615120
-0.414460 -0.109199 -0.615120
0.476249 -0.862876 -0.752152
0.106262 -0.903986 -0.875481
0.106262 0.041536 -0.738449
-0.263725 -0.862876 -0.752152
1.394365 -0.698438 -0.149211
1.599913 -0.671031 0.344105
-1.387388 -0.671031 0.344105
0.106262 0.918542 0.919640
0.914752 0.658181 0.700389
-0.702228 0.658181 0.700389
0.106262 -1.082128 1.508879
0.901049 -0.986205 1.426659
0.901049 -0.451780 1.563692
-0.688524 -0.451780 1.563692
-0.688524 -0.986205 1.426659
0.901049 0.096349 1.454066
0.106262 0.384117 1.508879
0.106262 -0.438076 1.659614
-0.688524 0.096349 1.454066
1.380662 -1.164347 0.645576
1.216223 -1.068424 0.727795
-1.291466 -1.383599 0.645576
-1.003698 -1.068424 0.727795
1.503991 -0.794360 0.919640
1.229926 -0.671031 1.166298
-1.168137 -1.164347 0.645576
-1.017402 -0.671031 1.166298
1.503991 -0.369560 1.015563
1.229926 -0.232528 1.248518
-1.291466 -0.794360 0.919640
-1.017402 -0.232528 1.248518
1.503991 0.055239 0.878531
1.229926 0.205975 1.125189
-1.291466 -0.369560 1.015563
-1.017402 0.205975 1.125189
1.462881 0.192272 0.398918
1.188817 0.452633 0.508544
-0.976292 0.452633 0.508544
-1.250356 0.192272 0.398918
0.914752 -1.328786 0.851124
-0.702228 -1.328786 0.851124
0.106262 -1.575444 0.933343
-0.236318 -1.657663 1.097782
1.613616 -0.492889 0.494840
-1.401092 -0.492889 0.494840
1.545100 -0.218825 0.508544
-1.332576 -0.218825 0.508544
-1.291466 0.055239 0.878531
0.859939 -0.205122 -0.409572
-0.647415 -0.205122 -0.409572
0.818830 -0.835470 -0.368462
-0.606305 -0.835470 -0.368462
-1.181840 -0.698438 -0.149211
1.229926 0.178568 -0.080695
0.955862 0.384117 -0.025882
-0.743337 0.384117 -0.025882
-1.017402 0.178568 -0.080695
1.147707 -0.287341 -0.286243
-0.935182 -0.287341 -0.286243
1.901384 -0.026980 0.768905
1.668429 -0.164012 0.645576
1.723242 -0.191419 0.563357
-1.510718 -0.191419 0.563357
-1.455905 -0.164012 0.645576
-1.688859 -0.026980 0.768905
1.887681 -0.068090 0.659279
2.189152 0.110052 0.700389
2.271371 0.164865 0.823718
-1.675156 -0.068090 0.659279
-2.058846 0.164865 0.823718
2.326184 0.137459 0.440028
-2.113659 0.137459 0.440028
-1.976627 0.110052 0.700389
2.476919 0.164865 0.494840
2.230261 0.137459 0.070041
-2.017737 0.137459 0.070041
-2.264395 0.164865 0.494840
2.353590 0.178568 0.028931
1.915087 -0.040683 -0.135508
-1.702563 -0.040683 -0.135508
-2.141066 0.178568 0.028931
1.558804 -0.342154 -0.190320
1.462881 -0.355857 -0.313649
-1.716266 0.000427 -0.245133
-1.250356 -0.355857 -0.313649
1.928790 0.068943 -0.066991
1.654726 -0.205122 -0.108101
-1.716266 0.068943 -0.066991
-1.346279 -0.342154 -0.190320
2.189152 0.205975 0.097447
-1.976627 0.205975 0.097447
2.271371 0.205975 0.371512
-2.058846 0.205975 0.371512
2.161745 0.192272 0.563357
-1.949221 0.192272 0.563357
1.901384 0.055239 0.535950
-1.688859 0.055239 0.535950
1.764352 -0.068090 0.467434
1.366958 -0.273638 -0.108101
-1.154434 -0.273638 -0.108101
1.380662 -0.451780 -0.066991
1.586210 -0.205122 0.440028
-1.373685 -0.205122 0.440028
1.531397 -0.095496 -0.094398
-1.442201 -0.205122 -0.108101
1.586210 -0.095496 -0.039585
1.366958 -0.246231 0.001525
-1.154434 -0.246231 0.001525
-1.373685 -0.095496 -0.039585
1.545100 -0.095496 0.083744
-1.222950 -0.095496 0.097447
-1.332576 -0.095496 0.083744
1.572507 -0.095496 0.234479
1.503991 -0.205122 0.289292
-1.291466 -0.205122 0.289292
-1.359982 -0.095496 0.234479
1.668429 -0.109199 0.357808
-1.455905 -0.109199 0.357808
-1.168137 -0.451780 -0.066991
1.668429 -0.013277 0.344105
1.778055 0.027833 0.440028
-1.551827 -0.068090 0.467434
-1.565530 0.027833 0.440028
1.586210 -0.013277 0.234479
-1.373685 -0.013277 0.234479
1.435475 -0.095496 0.097447
1.449178 -0.013277 0.097447
1.558804 -0.013277 0.070041
-1.346279 -0.013277 0.070041
1.599913 -0.013277 -0.039585
-1.387388 -0.013277 -0.039585
1.531397 -0.013277 -0.094398
-1.318872 -0.095496 -0.094398
1.654726 -0.109199 -0.094398
-1.318872 -0.013277 -0.094398
1.928790 0.151162 0.508544
-1.716266 0.151162 0.508544
2.189152 0.274491 0.535950
-1.976627 0.274491 0.535950
2.312480 0.288194 0.357808
-2.099956 0.288194 0.357808
2.230261 0.274491 0.083744
-2.017737 0.274491 0.083744
1.942494 0.164865 -0.066991
-1.729969 0.164865 -0.066991
1.750649 0.014130 0.042634
-1.538124 0.014130 0.042634
1.668429 0.000427 0.124854
1.860274 0.068943 0.152260
-1.647750 0.068943 0.152260
-1.455905 0.000427 0.124854
1.956197 0.096349 0.261886
1.887681 0.082646 0.344105
-1.579234 0.041536 0.234479
-1.675156 0.082646 0.344105
2.052119 0.110052 0.302995
-1.839595 0.110052 0.302995
-1.743672 0.096349 0.261886
2.011010 0.110052 0.412621
-1.798485 0.110052 0.412621
1.791758 0.041536 0.234479
-1.455905 -0.013277 0.344105
-1.236653 -0.013277 0.097447
-1.442201 -0.109199 -0.094398
1.490287 0.000427 -0.286243
1.928790 0.288194 -0.217727
-1.716266 0.288194 -0.217727
1.928790 0.000427 -0.245133
2.408403 0.356710 0.028931
-2.195879 0.356710 0.028931
2.504325 0.301897 0.453731
-2.291801 0.301897 0.453731
2.298777 0.384117 0.755202
-2.086253 0.384117 0.755202
1.901384 0.274491 0.700389
-1.688859 0.274491 0.700389
-1.277763 0.000427 -0.286243
1.613616 0.096349 0.604466
-1.401092 0.096349 0.604466
-0.167802 -1.712476 0.028931
0.106262 -1.863211 -1.259171
-0.387054 -1.918024 0.631873
-0.825557 -1.767289 0.522247
-0.852963 -1.753585 0.302995
-0.318537 -1.904321 0.152260
3 0 1 2
3 3 4 5
3 1 6 7
3 8 5 9
3 10 11 6
3 12 8 13
3 14 10 1
3 15 3 8
3 16 17 10
3 18 15 12
3 17 19 11
3 20 12 21
3 17 22 23
3 24 25 20
3 26 22 17
3 27 18 20
3 28 29 22
3 30 27 25
3 22 29 31
3 32 33 25
3 29 34 35
3 36 37 33
3 28 38 34
3 37 39 30
3 38 40 41
3 42 43 39
3 34 41 44
3 45 42 37
3 41 2 7
3 9 5 42
3 40 46 2
3 5 4 43
3 46 40 47
3 48 43 4
3 40 38 49
3 50 39 43
3 38 28 51
3 52 30 39
3 28 26 53
3 54 27 30
3 16 55 53
3 18 27 54
3 14 56 55
3 15 18 57
3 0 58 56
3 3 15 59
3 46 60 58
3 4 3 61
3 62 58 60
3 63 61 64
3 56 58 62
3 64 61 59
3 62 55 56
3 59 57 64
3 62 53 55
3 57 54 64
3 62 51 53
3 54 52 64
3 62 49 51
3 52 50 64
3 62 47 49
3 50 48 64
3 62 60 47
3 48 63 64
3 65 66 67
3 67 68 69
3 70 71 66
3 68 72 73
3 74 71 70
3 75 76 73
3 77 74 78
3 79 80 76
3 81 77 82
3 83 84 80
3 85 86 87
3 88 89 90
3 85 91 92
3 93 94 88
3 95 96 92
3 97 94 93
3 95 98 99
3 100 101 97
3 98 102 103
3 104 105 101
3 102 106 107
3 108 109 105
3 110 111 107
3 112 109 108
3 110 113 114
3 115 116 112
3 113 117 118
3 119 120 116
3 117 121 122
3 122 121 120
3 123 124 114
3 115 125 126
3 127 111 114
3 128 125 115
3 129 107 111
3 130 108 131
3 132 103 107
3 108 104 133
3 134 99 103
3 104 100 135
3 136 96 99
3 100 137 138
3 139 92 96
3 137 93 140
3 141 86 92
3 93 142 143
3 144 87 86
3 142 90 145
3 146 147 87
3 148 145 90
3 123 118 122
3 122 119 126
3 122 149 150
3 122 151 152
3 147 146 150
3 152 148 147
3 153 67 66
3 153 154 68
3 155 66 71
3 154 156 72
3 157 158 71
3 72 156 159
3 160 161 77
3 162 83 79
3 74 77 161
3 75 159 163
3 164 165 166
3 166 165 167
3 161 160 166
3 166 162 163
3 168 157 161
3 163 159 168
3 169 170 164
3 171 172 167
3 173 169 174
3 175 176 172
3 177 178 173
3 175 179 177
3 180 181 178
3 179 181 180
3 165 164 170
3 182 167 165
3 183 170 184
3 185 182 183
3 186 187 178
3 186 181 179
3 187 188 173
3 189 179 175
3 173 188 190
3 191 192 175
3 190 184 170
3 191 171 182
3 186 190 188
3 192 191 186
3 193 184 190
3 193 186 191
3 194 87 147
3 176 177 147
3 174 195 87
3 172 176 90
3 174 164 196
3 197 167 172
3 164 160 81
3 83 162 167
3 198 199 196
3 197 200 84
3 199 201 195
3 202 203 200
3 87 195 201
3 90 89 203
3 157 168 204
3 204 168 159
3 157 205 206
3 159 156 207
3 158 206 208
3 156 154 209
3 155 208 210
3 154 153 210
3 210 208 211
3 212 209 210
3 206 213 211
3 207 209 212
3 205 214 213
3 215 207 216
3 205 204 217
3 217 204 215
3 218 211 214
3 218 217 219
3 214 211 213
3 216 212 219
3 146 220 221
3 148 152 222
3 150 221 223
3 152 151 224
3 123 225 223
3 224 151 126
3 146 144 226
3 227 145 148
3 141 228 226
3 143 145 227
3 139 229 228
3 140 143 230
3 136 231 229
3 138 140 232
3 134 233 231
3 135 138 234
3 134 132 235
3 236 133 135
3 132 129 237
3 238 131 133
3 127 239 237
3 128 131 238
3 124 240 239
3 125 128 241
3 123 242 240
3 126 125 243
3 240 242 244
3 245 246 243
3 240 247 248
3 243 241 249
3 237 239 248
3 249 241 238
3 235 237 250
3 251 238 236
3 235 252 253
3 236 254 255
3 231 233 253
3 255 254 234
3 231 256 257
3 234 232 258
3 228 229 257
3 258 232 230
3 226 228 259
3 260 230 227
3 226 261 262
3 227 263 264
3 223 265 244
3 224 246 245
3 221 266 265
3 222 224 267
3 220 262 266
3 263 222 268
3 117 269 270
3 120 121 270
3 113 271 269
3 116 120 272
3 113 110 273
3 274 112 116
3 110 106 275
3 276 109 112
3 106 102 277
3 278 105 109
3 98 279 277
3 101 105 278
3 98 95 280
3 281 97 101
3 91 282 280
3 94 97 281
3 85 283 282
3 88 94 284
3 285 286 287
3 288 286 285
3 289 285 290
3 291 285 289
3 292 289 293
3 294 289 292
3 295 292 296
3 295 69 297
3 65 296 298
3 69 73 299
3 70 298 300
3 73 76 301
3 78 300 302
3 76 80 303
3 293 290 302
3 294 301 303
3 300 298 296
3 297 299 301
3 304 302 290
3 291 303 305
3 82 302 304
3 80 84 305
3 199 306 307
3 308 309 200
3 198 304 306
3 309 305 84
3 310 201 307
3 308 203 89
3 310 311 283
3 312 313 89
3 314 315 316
3 317 318 314
3 319 316 320
3 321 317 319
3 320 322 323
3 321 324 323
3 322 287 286
3 325 323 286
3 304 287 322
3 325 288 305
3 282 326 327
3 284 281 328
3 329 330 315
3 318 331 329
3 332 333 334
3 335 336 332
3 334 337 338
3 335 339 338
3 337 330 329
3 340 338 329
3 279 341 342
3 343 278 344
3 341 345 346
3 347 344 348
3 345 349 350
3 351 348 352
3 349 353 354
3 355 352 356
3 357 358 354
3 356 359 360
3 337 354 358
3 340 331 359
3 334 350 354
3 335 340 356
3 333 346 350
3 336 335 352
3 361 342 346
3 362 336 348
3 275 277 342
3 344 278 276
3 363 361 333
3 336 362 363
3 271 273 275
3 364 272 276
3 275 361 363
3 276 272 363
3 270 269 363
3 363 272 270
3 279 280 327
3 328 281 343
3 365 345 341
3 366 328 347
3 367 349 345
3 368 366 351
3 357 353 349
3 355 369 360
3 322 320 370
3 371 321 325
3 326 372 370
3 371 373 374
3 283 372 326
3 312 284 374
3 307 306 372
3 308 312 373
3 306 322 372
3 373 325 309
3 283 311 307
3 308 313 312
3 357 375 376
3 377 378 360
3 330 358 376
3 377 359 331
3 379 370 376
3 377 371 380
3 320 316 376
3 377 317 321
3 315 376 316
3 317 377 318
3 381 382 383
3 384 385 386
3 387 388 389
3 390 386 391
3 389 388 392
3 393 394 391
3 395 392 396
3 397 393 398
3 399 396 400
3 401 397 402
3 400 403 404
3 401 405 406
3 407 408 403
3 409 401 410
3 411 407 400
3 412 397 401
3 392 413 411
3 412 414 393
3 388 415 413
3 414 416 394
3 387 417 415
3 416 418 390
3 383 419 417
3 384 390 418
3 326 379 420
3 421 380 374
3 379 404 403
3 410 406 380
3 326 422 365
3 374 328 366
3 423 383 382
3 424 368 385
3 408 425 420
3 426 410 421
3 427 428 420
3 421 429 430
3 428 427 431
3 429 432 433
3 434 435 428
3 429 436 437
3 423 435 434
3 437 436 424
3 383 423 438
3 439 424 384
3 435 423 367
3 436 366 368
3 365 422 428
3 429 440 366
3 422 420 428
3 429 421 440
3 438 441 442
3 439 443 444
3 438 434 445
3 446 437 439
3 447 448 445
3 432 437 446
3 447 431 449
3 450 433 432
3 431 427 451
3 452 430 433
3 425 453 451
3 454 430 452
3 408 455 453
3 426 454 456
3 419 442 457
3 443 418 458
3 417 457 459
3 418 416 460
3 415 459 461
3 416 414 462
3 411 413 461
3 462 414 412
3 407 411 463
3 464 412 409
3 408 407 465
3 466 409 426
3 449 451 467
3 468 452 450
3 469 467 470
3 471 468 472
3 470 473 474
3 471 475 476
3 474 473 477
3 478 479 476
3 442 474 480
3 444 458 481
3 441 482 474
3 476 475 483
3 441 445 469
3 472 446 483
3 469 445 448
3 472 450 484
3 453 455 467
3 468 485 456
3 470 467 455
3 471 466 485
3 463 473 470
3 471 479 464
3 461 477 473
3 479 478 462
3 480 477 461
3 481 460 462
3 457 480 459
3 460 481 458
3 404 486 487
3 406 405 488
3 489 487 490
3 405 402 491
3 395 399 490
3 491 402 398
3 389 395 492
3 493 398 391
3 381 389 494
3 495 391 386
3 382 381 496
3 497 386 385
3 496 487 486
3 498 488 497
3 494 490 487
3 495 497 488
3 494 492 490
3 491 493 495
3 357 367 382
3 385 368 360
3 499 486 375
3 500 360 378
3 375 486 404
3 378 380 406
3 46 0 2
3 8 3 5
3 2 1 7
3 13 8 9
3 1 10 6
3 21 12 13
3 0 14 1
3 12 15 8
3 14 16 10
3 20 18 12
3 10 17 11
3 501 20 21
3 19 17 23
3 501 24 20
3 16 26 17
3 25 27 20
3 26 28 22
3 33 30 25
3 23 22 31
3 24 32 25
3 31 29 35
3 32 36 33
3 29 28 34
3 33 37 30
3 34 38 41
3 37 42 39
3 35 34 44
3 36 45 37
3 44 41 7
3 45 9 42
3 41 40 2
3 42 5 43
3 60 46 47
3 63 48 4
3 47 40 49
3 48 50 43
3 49 38 51
3 50 52 39
3 51 28 53
3 52 54 30
3 26 16 53
3 57 18 54
3 16 14 55
3 59 15 57
3 14 0 56
3 61 3 59
3 0 46 58
3 63 4 61
3 295 65 67
3 295 67 69
3 65 70 66
3 69 68 73
3 78 74 70
3 72 75 73
3 82 77 78
3 75 79 76
3 198 81 82
3 79 83 80
3 310 85 87
3 142 88 90
3 86 85 92
3 142 93 88
3 91 95 92
3 137 97 93
3 96 95 99
3 137 100 97
3 99 98 103
3 100 104 101
3 103 102 107
3 104 108 105
3 106 110 107
3 130 112 108
3 111 110 114
3 130 115 112
3 114 113 118
3 115 119 116
3 118 117 122
3 119 122 120
3 118 123 114
3 119 115 126
3 124 127 114
3 130 128 115
3 127 129 111
3 128 130 131
3 129 132 107
3 131 108 133
3 132 134 103
3 133 104 135
3 134 136 99
3 135 100 138
3 136 139 96
3 138 137 140
3 139 141 92
3 140 93 143
3 141 144 86
3 143 142 145
3 144 146 87
3 147 148 90
3 225 123 122
3 151 122 126
3 225 122 150
3 149 122 152
3 149 147 150
3 149 152 147
3 155 153 66
3 67 153 68
3 158 155 71
3 68 154 72
3 74 157 71
3 75 72 159
3 81 160 77
3 163 162 79
3 157 74 161
3 79 75 163
3 160 164 166
3 162 166 167
3 502 161 166
3 502 166 163
3 502 168 161
3 502 163 168
3 174 169 164
3 182 171 167
3 194 173 174
3 171 175 172
3 194 177 173
3 176 175 177
3 177 180 178
3 177 179 180
3 183 165 170
3 183 182 165
3 193 183 184
3 193 185 183
3 181 186 178
3 189 186 179
3 178 187 173
3 192 189 175
3 169 173 190
3 171 191 175
3 169 190 170
3 185 191 182
3 187 186 188
3 189 192 186
3 186 193 190
3 185 193 191
3 177 194 147
3 90 176 147
3 194 174 87
3 202 172 90
3 195 174 196
3 202 197 172
3 196 164 81
3 197 83 167
3 81 198 196
3 83 197 84
3 196 199 195
3 197 202 200
3 310 87 201
3 202 90 203
3 205 157 204
3 215 204 159
3 158 157 206
3 215 159 207
3 155 158 208
3 207 156 209
3 153 155 210
3 209 154 210
3 218 210 211
3 218 212 210
3 208 206 211
3 216 207 212
3 206 205 213
3 219 215 216
3 214 205 217
3 219 217 215
3 217 218 214
3 212 218 219
3 150 146 221
3 263 148 222
3 225 150 223
3 222 152 224
3 242 123 223
3 246 224 126
3 220 146 226
3 263 227 148
3 144 141 226
3 230 143 227
3 141 139 228
3 232 140 230
3 139 136 229
3 234 138 232
3 136 134 231
3 254 135 234
3 233 134 235
3 254 236 135
3 235 132 237
3 236 238 133
3 129 127 237
3 241 128 238
3 127 124 239
3 243 125 241
3 124 123 240
3 246 126 243
3 247 240 244
3 503 245 243
3 239 240 248
3 503 243 249
3 250 237 248
3 251 249 238
3 252 235 250
3 504 251 236
3 233 235 253
3 504 236 255
3 256 231 253
3 505 255 234
3 229 231 257
3 505 234 258
3 259 228 257
3 260 258 230
3 261 226 259
3 506 260 227
3 220 226 262
3 506 227 264
3 242 223 244
3 267 224 245
3 223 221 265
3 268 222 267
3 221 220 266
3 264 263 268
3 121 117 270
3 272 120 270
3 117 113 269
3 364 116 272
3 271 113 273
3 364 274 116
3 273 110 275
3 274 276 112
3 275 106 277
3 276 278 109
3 102 98 277
3 343 101 278
3 279 98 280
3 343 281 101
3 95 91 280
3 284 94 281
3 91 85 282
3 312 88 284
3 290 285 287
3 291 288 285
3 293 289 290
3 294 291 289
3 296 292 293
3 297 294 292
3 65 295 296
3 292 295 297
3 70 65 298
3 297 69 299
3 78 70 300
3 299 73 301
3 82 78 302
3 301 76 303
3 300 293 302
3 291 294 303
3 293 300 296
3 294 297 301
3 287 304 290
3 288 291 305
3 198 82 304
3 303 80 305
3 201 199 307
3 203 308 200
3 199 198 306
3 200 309 84
3 311 310 307
3 313 308 89
3 85 310 283
3 88 312 89
3 319 314 316
3 319 317 314
3 324 319 320
3 324 321 319
3 324 320 323
3 325 321 323
3 323 322 286
3 288 325 286
3 306 304 322
3 309 325 305
3 280 282 327
3 374 284 328
3 314 329 315
3 314 318 329
3 339 332 334
3 339 335 332
3 339 334 338
3 340 335 338
3 338 337 329
3 331 340 329
3 277 279 342
3 347 343 344
3 342 341 346
3 351 347 348
3 346 345 350
3 355 351 352
3 350 349 354
3 369 355 356
3 353 357 354
3 369 356 360
3 330 337 358
3 356 340 359
3 337 334 354
3 352 335 356
3 334 333 350
3 348 336 352
3 333 361 346
3 344 362 348
3 361 275 342
3 362 344 276
3 332 363 333
3 332 336 363
3 269 271 275
3 274 364 276
3 269 275 363
3 362 276 363
3 341 279 327
3 347 328 343
3 327 365 341
3 351 366 347
3 365 367 345
3 355 368 351
3 367 357 349
3 368 355 360
3 372 322 370
3 373 371 325
3 379 326 370
3 380 371 374
3 282 283 326
3 373 312 374
3 283 307 372
3 309 308 373
3 358 357 376
3 359 377 360
3 315 330 376
3 318 377 331
3 375 379 376
3 378 377 380
3 370 320 376
3 371 377 321
3 387 381 383
3 390 384 386
3 381 387 389
3 394 390 391
3 395 389 392
3 398 393 391
3 399 395 396
3 402 397 398
3 489 399 400
3 405 401 402
3 489 400 404
3 410 401 406
3 400 407 403
3 426 409 410
3 396 411 400
3 409 412 401
3 396 392 411
3 397 412 393
3 392 388 413
3 393 414 394
3 388 387 415
3 394 416 390
3 387 383 417
3 443 384 418
3 422 326 420
3 440 421 374
3 420 379 403
3 421 410 380
3 327 326 365
3 440 374 366
3 367 423 382
3 384 424 385
3 403 408 420
3 454 426 421
3 425 427 420
3 454 421 430
3 447 428 431
3 430 429 433
3 447 434 428
3 432 429 437
3 438 423 434
3 439 437 424
3 419 383 438
3 443 439 384
3 365 435 367
3 424 436 368
3 435 365 428
3 436 429 366
3 419 438 442
3 483 439 444
3 441 438 445
3 483 446 439
3 434 447 445
3 484 432 446
3 448 447 449
3 484 450 432
3 449 431 451
3 450 452 433
3 427 425 451
3 456 454 452
3 425 408 453
3 485 426 456
3 417 419 457
3 444 443 458
3 415 417 459
3 458 418 460
3 413 415 461
3 460 416 462
3 463 411 461
3 464 462 412
3 465 407 463
3 466 464 409
3 455 408 465
3 485 466 426
3 469 449 467
3 472 468 450
3 482 469 470
3 475 471 472
3 482 470 474
3 479 471 476
3 480 474 477
3 481 478 476
3 457 442 480
3 476 444 481
3 442 441 474
3 444 476 483
3 482 441 469
3 475 472 483
3 449 469 448
3 446 472 484
3 451 453 467
3 452 468 456
3 465 470 455
3 468 471 485
3 465 463 470
3 466 471 464
3 463 461 473
3 464 479 462
3 459 480 461
3 478 481 462
3 489 404 487
3 498 406 488
3 399 489 490
3 488 405 491
3 492 395 490
3 493 491 398
3 494 389 492
3 495 493 391
3 496 381 494
3 497 495 386
3 499 382 496
3 500 497 385
3 499 496 486
3 500 498 497
3 496 494 487
3 491 495 488
3 499 357 382
3 500 385 360
3 357 499 375
3 498 500 378
3 379 375 404
3 498 378 406
